<svg id="cloudcredits" xmlns="http://www.w3.org/2000/svg" viewBox="0 0 13 13" width="100%" height="100%" style ="fill: #0070b1; stroke: #0070b1;"><rect fill="none" fill-rule="evenodd" transform="translate(1.000000, 1.000000)" stroke-width="1" x="-0.5" y="-0.5" width="12" height="12" rx="1"></rect>
<path d="M5.83203125,9.09765625 C5.08984004,9.09765625 4.45833594,8.94629058 3.9375,8.64355469 C3.41666406,8.3408188 3.02360159,7.92090112 2.75830078,7.38378906 C2.49299998,6.846677 2.36035156,6.2281936 2.36035156,5.52832031 C2.36035156,4.81542612 2.49706895,4.19531514 2.77050781,3.66796875 C3.04394668,3.14062236 3.43700916,2.73372539 3.94970703,2.44726562 C4.46240491,2.16080586 5.0686814,2.01757812 5.76855469,2.01757812 C6.49446978,2.01757812 7.10156006,2.16406104 7.58984375,2.45703125 C8.07812744,2.75000146 8.45410024,3.15364326 8.71777344,3.66796875 L7.52148438,4.24902344 C7.36848882,3.95930845 7.14632307,3.72005303 6.85498047,3.53125 C6.56363787,3.34244697 6.21126509,3.24804688 5.79785156,3.24804688 C5.40396938,3.24804688 5.05647937,3.34244697 4.75537109,3.53125 C4.45426282,3.72005303 4.22151775,3.98616365 4.05712891,4.32958984 C3.89274006,4.67301604 3.81054688,5.07258887 3.81054688,5.52832031 C3.81054688,5.99056221 3.88704351,6.39745918 4.04003906,6.74902344 C4.19303462,7.1005877 4.42171072,7.37402246 4.72607422,7.56933594 C5.03043772,7.76464941 5.39908638,7.86230469 5.83203125,7.86230469 C6.64909263,7.86230469 7.2578105,7.47168359 7.65820313,6.69042969 L8.83984375,7.30078125 C8.59895713,7.82812764 8.23193606,8.25943843 7.73876953,8.59472656 C7.245603,8.9300147 6.61002993,9.09765625 5.83203125,9.09765625 Z" stroke="none" stroke-width="1" fill-rule="evenodd" id="C" transform="translate(1.000000, 1.000000)">
</path>
</svg>
