<svg id="subscription" xmlns="http://www.w3.org/2000/svg" viewBox="0 0 13 13" width="100%" height="100%" style ="fill: #0070b1; stroke: #0070b1;"><rect transform="translate(1.000000, 1.000000)" id="BG" stroke-width="1" fill="none" fill-rule="evenodd" x="-0.5" y="-0.5" width="12" height="12" rx="1"></rect>
<path d="M5.49023438,9.09765625 C4.26952515,9.09765625 3.33366211,8.70540757 2.68261719,7.92089844 L3.61035156,6.99804688 C3.77962324,7.18033945 3.94889238,7.3357741 4.11816406,7.46435547 C4.28743574,7.59293684 4.48925664,7.69954385 4.72363281,7.78417969 C4.95800898,7.86881553 5.22656099,7.91113281 5.52929688,7.91113281 C5.98502832,7.91113281 6.33414592,7.84033274 6.57666016,7.69873047 C6.81917439,7.5571282 6.94042969,7.35449351 6.94042969,7.09082031 C6.94042969,6.89225161 6.87613997,6.73112041 6.74755859,6.60742188 C6.61897722,6.48372334 6.45703223,6.38932324 6.26171875,6.32421875 C6.06640527,6.25911426 5.79622568,6.1858728 5.45117188,6.10449219 C5.32747334,6.07845039 5.23470083,6.05729175 5.17285156,6.04101562 C4.71712012,5.93033799 4.33138179,5.80338613 4.015625,5.66015625 C3.69986821,5.51692637 3.43864036,5.30859512 3.23193359,5.03515625 C3.02522683,4.76171738 2.921875,4.40690322 2.921875,3.97070312 C2.921875,3.55077915 3.03336477,3.1943374 3.25634766,2.90136719 C3.47933054,2.60839697 3.78938604,2.38785881 4.18652344,2.23974609 C4.58366084,2.09163337 5.04101304,2.01757812 5.55859375,2.01757812 C6.09896104,2.01757812 6.57584429,2.09651614 6.98925781,2.25439453 C7.40267134,2.41227292 7.77376138,2.65396973 8.10253906,2.97949219 L7.26269531,3.88769531 C7.01529824,3.65657437 6.75000142,3.4775397 6.46679688,3.35058594 C6.18359233,3.22363218 5.86458511,3.16015625 5.50976562,3.16015625 C5.08658643,3.16015625 4.78222749,3.22688735 4.59667969,3.36035156 C4.41113188,3.49381577 4.31835938,3.66634009 4.31835938,3.87792969 C4.31835938,4.06998794 4.37451116,4.22216741 4.48681641,4.33447266 C4.59912166,4.44677791 4.74641836,4.53466765 4.92871094,4.59814453 C5.11100352,4.66162141 5.37630034,4.73404907 5.72460938,4.81542969 L5.83203125,4.83984375 C6.38216421,4.96679751 6.82324053,5.09619075 7.15527344,5.22802734 C7.48730635,5.35986394 7.76806526,5.5665676 7.99755859,5.84814453 C8.22705193,6.12972146 8.34179688,6.51627358 8.34179688,7.0078125 C8.34179688,7.42773647 8.24007263,7.79394375 8.03662109,8.10644531 C7.83316956,8.41894687 7.51904509,8.66227126 7.09423828,8.83642578 C6.66943147,9.0105803 6.13476885,9.09765625 5.49023438,9.09765625 Z" id="S" transform="translate(1.000000, 1.000000)" stroke="none" fill-rule="evenodd" stroke-width="1">
</path>
</svg>
